<svg
  xmlns="http://www.w3.org/2000/svg"
  width="24"
  height="24"
  viewBox="0 0 24 24"
  fill="none"
  stroke="currentColor"
  stroke-width="2"
  stroke-linecap="round"
  stroke-linejoin="round"
>
  <path d="M10.55 15.59A8 8 0 0 0 16 8a8 8 0 1 0-10.53 7.59c.4.07.55-.17.55-.38a216 216 0 0 0-.01-1.49c-2.01.37-2.53-.49-2.69-.94-.09-.23-.48-.94-.82-1.13-.28-.15-.68-.52-.01-.53.63-.01 1.08.58 1.23.82.72 1.21 1.87.87 2.33.66.07-.52.28-.87.51-1.07-1.78-.2-3.64-.89-3.64-3.95a3.1 3.1 0 0 1 .82-2.15c-.08-.2-.36-1.02.08-2.12 0 0 .67-.21 2.2.82a7.4 7.4 0 0 1 4 0c1.53-1.04 2.2-.82 2.2-.82.44 1.1.16 1.92.08 2.12a3 3 0 0 1 .82 2.15c0 3.07-1.87 3.75-3.65 3.95.29.25.54.73.54 1.48a411 411 0 0 1-.01 2.2c0 .21.15.46.55.38" />
</svg>
